<?xml version="1.0" standalone="no"?><!-- Generator: Gravit.io --><svg xmlns="http://www.w3.org/2000/svg" xmlns:xlink="http://www.w3.org/1999/xlink" style="isolation:isolate" viewBox="0 0 600 250" width="600" height="250"><defs><clipPath id="_clipPath_3PqnR9cRAv9DZX8h2UNgkpyOEIhJP9qa"><rect width="600" height="250"/></clipPath></defs><g clip-path="url(#_clipPath_3PqnR9cRAv9DZX8h2UNgkpyOEIhJP9qa)"><rect width="600" height="250" style="fill:rgb(255,252,255)"/><g id="Group"><path d=" M 87.85 153.95 L 87.85 153.95 Q 89.35 154.85 89.35 156.45 L 89.35 156.45 L 89.35 156.45 Q 89.35 157.35 88.65 158.45 L 88.65 158.45 L 88.65 158.45 Q 87.75 159.55 86.35 159.55 L 86.35 159.55 L 86.35 159.55 Q 85.55 159.55 84.75 159.05 L 84.75 159.05 L 84.75 159.05 Q 76.75 153.75 67.25 153.75 L 67.25 153.75 L 67.25 153.75 Q 59.15 153.75 52.6 157.55 L 52.6 157.55 L 52.6 157.55 Q 46.05 161.35 42.3 168.2 L 42.3 168.2 L 42.3 168.2 Q 38.55 175.05 38.55 183.75 L 38.55 183.75 L 38.55 183.75 Q 38.55 192.65 42.35 199.5 L 42.35 199.5 L 42.35 199.5 Q 46.15 206.35 52.7 210.1 L 52.7 210.1 L 52.7 210.1 Q 59.25 213.85 67.25 213.85 L 67.25 213.85 L 67.25 213.85 Q 76.75 213.85 84.65 208.65 L 84.65 208.65 L 84.65 208.65 Q 85.45 208.15 86.35 208.15 L 86.35 208.15 L 86.35 208.15 Q 87.75 208.15 88.65 209.35 L 88.65 209.35 L 88.65 209.35 Q 89.35 210.15 89.35 211.25 L 89.35 211.25 L 89.35 211.25 Q 89.35 212.85 87.95 213.65 L 87.95 213.65 L 87.95 213.65 Q 84.05 216.25 78.35 218 L 78.35 218 L 78.35 218 Q 72.65 219.75 67.25 219.75 L 67.25 219.75 L 67.25 219.75 Q 57.75 219.75 49.7 215.2 L 49.7 215.2 L 49.7 215.2 Q 41.65 210.65 36.9 202.45 L 36.9 202.45 L 36.9 202.45 Q 32.15 194.25 32.15 183.75 L 32.15 183.75 L 32.15 183.75 Q 32.15 173.65 36.85 165.4 L 36.85 165.4 L 36.85 165.4 Q 41.55 157.15 49.55 152.5 L 49.55 152.5 L 49.55 152.5 Q 57.55 147.85 67.25 147.85 L 67.25 147.85 L 67.25 147.85 Q 72.85 147.85 78.2 149.45 L 78.2 149.45 L 78.2 149.45 Q 83.55 151.05 87.85 153.95 L 87.85 153.95 Z  M 147.75 193.15 L 147.75 193.15 Q 147.75 200.65 144.45 206.75 L 144.45 206.75 L 144.45 206.75 Q 141.15 212.85 135.35 216.3 L 135.35 216.3 L 135.35 216.3 Q 129.55 219.75 122.45 219.75 L 122.45 219.75 L 122.45 219.75 Q 115.35 219.75 109.55 216.3 L 109.55 216.3 L 109.55 216.3 Q 103.75 212.85 100.45 206.75 L 100.45 206.75 L 100.45 206.75 Q 97.15 200.65 97.15 193.15 L 97.15 193.15 L 97.15 193.15 Q 97.15 185.65 100.45 179.55 L 100.45 179.55 L 100.45 179.55 Q 103.75 173.45 109.55 169.95 L 109.55 169.95 L 109.55 169.95 Q 115.35 166.45 122.45 166.45 L 122.45 166.45 L 122.45 166.45 Q 129.55 166.45 135.35 169.95 L 135.35 169.95 L 135.35 169.95 Q 141.15 173.45 144.45 179.55 L 144.45 179.55 L 144.45 179.55 Q 147.75 185.65 147.75 193.15 L 147.75 193.15 Z  M 141.75 193.15 L 141.75 193.15 Q 141.75 187.15 139.25 182.35 L 139.25 182.35 L 139.25 182.35 Q 136.75 177.55 132.3 174.8 L 132.3 174.8 L 132.3 174.8 Q 127.85 172.05 122.45 172.05 L 122.45 172.05 L 122.45 172.05 Q 117.05 172.05 112.65 174.8 L 112.65 174.8 L 112.65 174.8 Q 108.25 177.55 105.7 182.35 L 105.7 182.35 L 105.7 182.35 Q 103.15 187.15 103.15 193.15 L 103.15 193.15 L 103.15 193.15 Q 103.15 199.05 105.7 203.85 L 105.7 203.85 L 105.7 203.85 Q 108.25 208.65 112.65 211.4 L 112.65 211.4 L 112.65 211.4 Q 117.05 214.15 122.45 214.15 L 122.45 214.15 L 122.45 214.15 Q 127.85 214.15 132.3 211.45 L 132.3 211.45 L 132.3 211.45 Q 136.75 208.75 139.25 203.95 L 139.25 203.95 L 139.25 203.95 Q 141.75 199.15 141.75 193.15 L 141.75 193.15 Z  M 201.55 144.75 L 201.55 144.75 Q 202.85 144.75 203.7 145.6 L 203.7 145.6 L 203.7 145.6 Q 204.55 146.45 204.55 147.75 L 204.55 147.75 L 204.55 215.75 L 204.55 215.75 Q 204.55 217.05 203.7 217.9 L 203.7 217.9 L 203.7 217.9 Q 202.85 218.75 201.55 218.75 L 201.55 218.75 L 201.55 218.75 Q 200.25 218.75 199.4 217.9 L 199.4 217.9 L 199.4 217.9 Q 198.55 217.05 198.55 215.75 L 198.55 215.75 L 198.55 208.75 L 198.55 208.75 Q 196.05 213.35 191.1 216.55 L 191.1 216.55 L 191.1 216.55 Q 186.15 219.75 180.15 219.75 L 180.15 219.75 L 180.15 219.75 Q 173.55 219.75 168.2 216.3 L 168.2 216.3 L 168.2 216.3 Q 162.85 212.85 159.75 206.75 L 159.75 206.75 L 159.75 206.75 Q 156.65 200.65 156.65 193.05 L 156.65 193.05 L 156.65 193.05 Q 156.65 185.55 159.75 179.45 L 159.75 179.45 L 159.75 179.45 Q 162.85 173.35 168.2 169.9 L 168.2 169.9 L 168.2 169.9 Q 173.55 166.45 180.05 166.45 L 180.05 166.45 L 180.05 166.45 Q 185.95 166.45 190.95 169.4 L 190.95 169.4 L 190.95 169.4 Q 195.95 172.35 198.55 177.05 L 198.55 177.05 L 198.55 147.75 L 198.55 147.75 Q 198.55 146.45 199.4 145.6 L 199.4 145.6 L 199.4 145.6 Q 200.25 144.75 201.55 144.75 L 201.55 144.75 Z  M 180.75 214.15 L 180.75 214.15 Q 185.95 214.15 190.1 211.45 L 190.1 211.45 L 190.1 211.45 Q 194.25 208.75 196.6 203.9 L 196.6 203.9 L 196.6 203.9 Q 198.95 199.05 198.95 193.05 L 198.95 193.05 L 198.95 193.05 Q 198.95 187.15 196.6 182.35 L 196.6 182.35 L 196.6 182.35 Q 194.25 177.55 190.1 174.8 L 190.1 174.8 L 190.1 174.8 Q 185.95 172.05 180.75 172.05 L 180.75 172.05 L 180.75 172.05 Q 175.55 172.05 171.4 174.8 L 171.4 174.8 L 171.4 174.8 Q 167.25 177.55 164.9 182.35 L 164.9 182.35 L 164.9 182.35 Q 162.55 187.15 162.55 193.05 L 162.55 193.05 L 162.55 193.05 Q 162.55 199.05 164.9 203.85 L 164.9 203.85 L 164.9 203.85 Q 167.25 208.65 171.4 211.4 L 171.4 211.4 L 171.4 211.4 Q 175.55 214.15 180.75 214.15 L 180.75 214.15 Z  M 263.45 190.25 L 263.45 190.25 Q 263.45 191.45 262.55 192.3 L 262.55 192.3 L 262.55 192.3 Q 261.65 193.15 260.45 193.15 L 260.45 193.15 L 222.65 193.15 L 222.65 193.15 Q 222.65 199.15 225.1 203.9 L 225.1 203.9 L 225.1 203.9 Q 227.55 208.65 232.1 211.4 L 232.1 211.4 L 232.1 211.4 Q 236.65 214.15 242.85 214.15 L 242.85 214.15 L 242.85 214.15 Q 247.65 214.15 251.45 212.15 L 251.45 212.15 L 251.45 212.15 Q 255.25 210.15 257.55 207.05 L 257.55 207.05 L 257.55 207.05 Q 258.65 206.15 259.65 206.15 L 259.65 206.15 L 259.65 206.15 Q 260.65 206.15 261.45 206.95 L 261.45 206.95 L 261.45 206.95 Q 262.25 207.75 262.25 208.75 L 262.25 208.75 L 262.25 208.75 Q 262.25 209.85 261.25 210.85 L 261.25 210.85 L 261.25 210.85 Q 258.05 214.75 253.2 217.25 L 253.2 217.25 L 253.2 217.25 Q 248.35 219.75 242.95 219.75 L 242.95 219.75 L 242.95 219.75 Q 235.25 219.75 229.35 216.45 L 229.35 216.45 L 229.35 216.45 Q 223.45 213.15 220.15 207.2 L 220.15 207.2 L 220.15 207.2 Q 216.85 201.25 216.85 193.45 L 216.85 193.45 L 216.85 193.45 Q 216.85 185.25 220.1 179.1 L 220.1 179.1 L 220.1 179.1 Q 223.35 172.95 228.75 169.7 L 228.75 169.7 L 228.75 169.7 Q 234.15 166.45 240.25 166.45 L 240.25 166.45 L 240.25 166.45 Q 246.25 166.45 251.5 169.25 L 251.5 169.25 L 251.5 169.25 Q 256.75 172.05 260.05 177.45 L 260.05 177.45 L 260.05 177.45 Q 263.35 182.85 263.45 190.25 L 263.45 190.25 Z  M 240.25 172.25 L 240.25 172.25 Q 234.45 172.25 229.5 176.25 L 229.5 176.25 L 229.5 176.25 Q 224.55 180.25 223.15 187.75 L 223.15 187.75 L 257.25 187.75 L 257.25 186.95 L 257.25 186.95 Q 256.75 182.45 254.25 179.1 L 254.25 179.1 L 254.25 179.1 Q 251.75 175.75 248 174 L 248 174 L 248 174 Q 244.25 172.25 240.25 172.25 L 240.25 172.25 Z  M 296.25 219.75 L 296.25 219.75 Q 289.05 219.75 283.5 217.35 L 283.5 217.35 L 283.5 217.35 Q 277.95 214.95 272.75 209.85 L 272.75 209.85 L 272.75 209.85 Q 271.55 208.85 271.55 207.45 L 271.55 207.45 L 271.55 207.45 Q 271.55 206.25 272.5 205.25 L 272.5 205.25 L 272.5 205.25 Q 273.45 204.25 274.65 204.25 L 274.65 204.25 L 274.65 204.25 Q 275.85 204.25 276.85 205.25 L 276.85 205.25 L 276.85 205.25 Q 284.65 213.85 296.35 213.85 L 296.35 213.85 L 296.35 213.85 Q 303.55 213.85 308.3 210.45 L 308.3 210.45 L 308.3 210.45 Q 313.05 207.05 313.05 201.55 L 313.05 201.55 L 313.05 201.55 Q 313.05 197.25 310.7 194.4 L 310.7 194.4 L 310.7 194.4 Q 308.35 191.55 304.55 189.75 L 304.55 189.75 L 304.55 189.75 Q 300.75 187.95 294.85 186.05 L 294.85 186.05 L 294.85 186.05 Q 288.45 184.15 284.1 181.85 L 284.1 181.85 L 284.1 181.85 Q 279.75 179.55 277.05 175.7 L 277.05 175.7 L 277.05 175.7 Q 274.35 171.85 274.35 165.95 L 274.35 165.95 L 274.35 165.95 Q 274.35 160.65 277.2 156.55 L 277.2 156.55 L 277.2 156.55 Q 280.05 152.45 285.2 150.1 L 285.2 150.1 L 285.2 150.1 Q 290.35 147.75 297.05 147.75 L 297.05 147.75 L 297.05 147.75 Q 303.15 147.75 308.5 149.8 L 308.5 149.8 L 308.5 149.8 Q 313.85 151.85 317.05 155.65 L 317.05 155.65 L 317.05 155.65 Q 318.55 157.35 318.55 158.55 L 318.55 158.55 L 318.55 158.55 Q 318.55 159.65 317.55 160.6 L 317.55 160.6 L 317.55 160.6 Q 316.55 161.55 315.35 161.55 L 315.35 161.55 L 315.35 161.55 Q 314.35 161.55 313.65 160.85 L 313.65 160.85 L 313.65 160.85 Q 310.95 157.65 306.45 155.65 L 306.45 155.65 L 306.45 155.65 Q 301.95 153.65 297.05 153.65 L 297.05 153.65 L 297.05 153.65 Q 289.75 153.65 285.15 156.9 L 285.15 156.9 L 285.15 156.9 Q 280.55 160.15 280.55 165.75 L 280.55 165.75 L 280.55 165.75 Q 280.55 171.55 284.95 174.65 L 284.95 174.65 L 284.95 174.65 Q 289.35 177.75 297.55 180.35 L 297.55 180.35 L 297.55 180.35 Q 304.65 182.45 309.15 184.65 L 309.15 184.65 L 309.15 184.65 Q 313.65 186.85 316.5 190.9 L 316.5 190.9 L 316.5 190.9 Q 319.35 194.95 319.35 201.55 L 319.35 201.55 L 319.35 201.55 Q 319.35 206.65 316.4 210.8 L 316.4 210.8 L 316.4 210.8 Q 313.45 214.95 308.2 217.35 L 308.2 217.35 L 308.2 217.35 Q 302.95 219.75 296.25 219.75 L 296.25 219.75 Z  M 356.15 166.45 L 356.15 166.45 Q 365.45 166.45 369.8 171.9 L 369.8 171.9 L 369.8 171.9 Q 374.15 177.35 374.15 186.35 L 374.15 186.35 L 374.15 215.75 L 374.15 215.75 Q 374.15 217.05 373.25 217.9 L 373.25 217.9 L 373.25 217.9 Q 372.35 218.75 371.15 218.75 L 371.15 218.75 L 371.15 218.75 Q 369.85 218.75 369 217.9 L 369 217.9 L 369 217.9 Q 368.15 217.05 368.15 215.75 L 368.15 215.75 L 368.15 186.65 L 368.15 186.65 Q 368.15 180.15 364.9 176.1 L 364.9 176.1 L 364.9 176.1 Q 361.65 172.05 354.85 172.05 L 354.85 172.05 L 354.85 172.05 Q 350.55 172.05 346.7 174.05 L 346.7 174.05 L 346.7 174.05 Q 342.85 176.05 340.45 179.4 L 340.45 179.4 L 340.45 179.4 Q 338.05 182.75 338.05 186.65 L 338.05 186.65 L 338.05 215.75 L 338.05 215.75 Q 338.05 217.05 337.2 217.9 L 337.2 217.9 L 337.2 217.9 Q 336.35 218.75 335.05 218.75 L 335.05 218.75 L 335.05 218.75 Q 333.75 218.75 332.9 217.9 L 332.9 217.9 L 332.9 217.9 Q 332.05 217.05 332.05 215.75 L 332.05 215.75 L 332.05 170.95 L 332.05 170.95 Q 332.05 169.65 332.9 168.8 L 332.9 168.8 L 332.9 168.8 Q 333.75 167.95 335.05 167.95 L 335.05 167.95 L 335.05 167.95 Q 336.35 167.95 337.2 168.8 L 337.2 168.8 L 337.2 168.8 Q 338.05 169.65 338.05 170.95 L 338.05 170.95 L 338.05 176.45 L 338.05 176.45 Q 340.75 172.15 345.8 169.3 L 345.8 169.3 L 345.8 169.3 Q 350.85 166.45 356.15 166.45 L 356.15 166.45 Z  M 395.65 215.75 L 395.65 215.75 Q 395.65 217.05 394.8 217.9 L 394.8 217.9 L 394.8 217.9 Q 393.95 218.75 392.65 218.75 L 392.65 218.75 L 392.65 218.75 Q 391.35 218.75 390.5 217.9 L 390.5 217.9 L 390.5 217.9 Q 389.65 217.05 389.65 215.75 L 389.65 215.75 L 389.65 169.75 L 389.65 169.75 Q 389.65 168.45 390.5 167.6 L 390.5 167.6 L 390.5 167.6 Q 391.35 166.75 392.65 166.75 L 392.65 166.75 L 392.65 166.75 Q 393.95 166.75 394.8 167.6 L 394.8 167.6 L 394.8 167.6 Q 395.65 168.45 395.65 169.75 L 395.65 169.75 L 395.65 215.75 Z  M 392.65 160.05 L 392.65 160.05 Q 390.65 160.05 389.55 159.1 L 389.55 159.1 L 389.55 159.1 Q 388.45 158.15 388.45 156.35 L 388.45 156.35 L 388.45 155.35 L 388.45 155.35 Q 388.45 153.55 389.6 152.6 L 389.6 152.6 L 389.6 152.6 Q 390.75 151.65 392.75 151.65 L 392.75 151.65 L 392.75 151.65 Q 396.75 151.65 396.75 155.35 L 396.75 155.35 L 396.75 156.35 L 396.75 156.35 Q 396.75 158.15 395.7 159.1 L 395.7 159.1 L 395.7 159.1 Q 394.65 160.05 392.65 160.05 L 392.65 160.05 Z  M 435.55 167.25 L 435.55 167.25 Q 442.15 167.25 447.55 170.6 L 447.55 170.6 L 447.55 170.6 Q 452.95 173.95 456 179.9 L 456 179.9 L 456 179.9 Q 459.05 185.85 459.05 193.25 L 459.05 193.25 L 459.05 193.25 Q 459.05 200.75 456 206.7 L 456 206.7 L 456 206.7 Q 452.95 212.65 447.6 216.05 L 447.6 216.05 L 447.6 216.05 Q 442.25 219.45 435.65 219.45 L 435.65 219.45 L 435.65 219.45 Q 429.85 219.45 425 216.7 L 425 216.7 L 425 216.7 Q 420.15 213.95 417.25 209.35 L 417.25 209.35 L 417.25 235.75 L 417.25 235.75 Q 417.25 237.05 416.4 237.9 L 416.4 237.9 L 416.4 237.9 Q 415.55 238.75 414.25 238.75 L 414.25 238.75 L 414.25 238.75 Q 412.95 238.75 412.1 237.9 L 412.1 237.9 L 412.1 237.9 Q 411.25 237.05 411.25 235.75 L 411.25 235.75 L 411.25 170.55 L 411.25 170.55 Q 411.25 169.25 412.1 168.35 L 412.1 168.35 L 412.1 168.35 Q 412.95 167.45 414.25 167.45 L 414.25 167.45 L 414.25 167.45 Q 415.55 167.45 416.4 168.35 L 416.4 168.35 L 416.4 168.35 Q 417.25 169.25 417.25 170.55 L 417.25 170.55 L 417.25 177.35 L 417.25 177.35 Q 419.85 172.65 424.75 169.95 L 424.75 169.95 L 424.75 169.95 Q 429.65 167.25 435.55 167.25 L 435.55 167.25 Z  M 435.05 213.85 L 435.05 213.85 Q 440.25 213.85 444.4 211.2 L 444.4 211.2 L 444.4 211.2 Q 448.55 208.55 450.9 203.85 L 450.9 203.85 L 450.9 203.85 Q 453.25 199.15 453.25 193.25 L 453.25 193.25 L 453.25 193.25 Q 453.25 187.45 450.9 182.8 L 450.9 182.8 L 450.9 182.8 Q 448.55 178.15 444.4 175.5 L 444.4 175.5 L 444.4 175.5 Q 440.25 172.85 435.05 172.85 L 435.05 172.85 L 435.05 172.85 Q 429.75 172.85 425.55 175.45 L 425.55 175.45 L 425.55 175.45 Q 421.35 178.05 419.05 182.7 L 419.05 182.7 L 419.05 182.7 Q 416.75 187.35 416.75 193.25 L 416.75 193.25 L 416.75 193.25 Q 416.75 199.15 419.05 203.85 L 419.05 203.85 L 419.05 203.85 Q 421.35 208.55 425.55 211.2 L 425.55 211.2 L 425.55 211.2 Q 429.75 213.85 435.05 213.85 L 435.05 213.85 Z  M 495.75 167.25 L 495.75 167.25 Q 502.35 167.25 507.75 170.6 L 507.75 170.6 L 507.75 170.6 Q 513.15 173.95 516.2 179.9 L 516.2 179.9 L 516.2 179.9 Q 519.25 185.85 519.25 193.25 L 519.25 193.25 L 519.25 193.25 Q 519.25 200.75 516.2 206.7 L 516.2 206.7 L 516.2 206.7 Q 513.15 212.65 507.8 216.05 L 507.8 216.05 L 507.8 216.05 Q 502.45 219.45 495.85 219.45 L 495.85 219.45 L 495.85 219.45 Q 490.05 219.45 485.2 216.7 L 485.2 216.7 L 485.2 216.7 Q 480.35 213.95 477.45 209.35 L 477.45 209.35 L 477.45 235.75 L 477.45 235.75 Q 477.45 237.05 476.6 237.9 L 476.6 237.9 L 476.6 237.9 Q 475.75 238.75 474.45 238.75 L 474.45 238.75 L 474.45 238.75 Q 473.15 238.75 472.3 237.9 L 472.3 237.9 L 472.3 237.9 Q 471.45 237.05 471.45 235.75 L 471.45 235.75 L 471.45 170.55 L 471.45 170.55 Q 471.45 169.25 472.3 168.35 L 472.3 168.35 L 472.3 168.35 Q 473.15 167.45 474.45 167.45 L 474.45 167.45 L 474.45 167.45 Q 475.75 167.45 476.6 168.35 L 476.6 168.35 L 476.6 168.35 Q 477.45 169.25 477.45 170.55 L 477.45 170.55 L 477.45 177.35 L 477.45 177.35 Q 480.05 172.65 484.95 169.95 L 484.95 169.95 L 484.95 169.95 Q 489.85 167.25 495.75 167.25 L 495.75 167.25 Z  M 495.25 213.85 L 495.25 213.85 Q 500.45 213.85 504.6 211.2 L 504.6 211.2 L 504.6 211.2 Q 508.75 208.55 511.1 203.85 L 511.1 203.85 L 511.1 203.85 Q 513.45 199.15 513.45 193.25 L 513.45 193.25 L 513.45 193.25 Q 513.45 187.45 511.1 182.8 L 511.1 182.8 L 511.1 182.8 Q 508.75 178.15 504.6 175.5 L 504.6 175.5 L 504.6 175.5 Q 500.45 172.85 495.25 172.85 L 495.25 172.85 L 495.25 172.85 Q 489.95 172.85 485.75 175.45 L 485.75 175.45 L 485.75 175.45 Q 481.55 178.05 479.25 182.7 L 479.25 182.7 L 479.25 182.7 Q 476.95 187.35 476.95 193.25 L 476.95 193.25 L 476.95 193.25 Q 476.95 199.15 479.25 203.85 L 479.25 203.85 L 479.25 203.85 Q 481.55 208.55 485.75 211.2 L 485.75 211.2 L 485.75 211.2 Q 489.95 213.85 495.25 213.85 L 495.25 213.85 Z  M 528.75 210.65 L 528.75 210.65 Q 527.95 209.35 527.95 208.45 L 527.95 208.45 L 527.95 208.45 Q 527.95 207.15 529.25 206.45 L 529.25 206.45 L 529.25 206.45 Q 529.85 205.85 530.85 205.85 L 530.85 205.85 L 530.85 205.85 Q 532.05 205.85 533.05 206.85 L 533.05 206.85 L 533.05 206.85 Q 538.95 214.65 548.75 214.65 L 548.75 214.65 L 548.75 214.65 Q 553.55 214.65 557.1 212.4 L 557.1 212.4 L 557.1 212.4 Q 560.65 210.15 560.65 205.85 L 560.65 205.85 L 560.65 205.85 Q 560.65 201.65 557.35 199.55 L 557.35 199.55 L 557.35 199.55 Q 554.05 197.45 548.15 195.95 L 548.15 195.95 L 548.15 195.95 Q 539.85 193.85 535.15 190.5 L 535.15 190.5 L 535.15 190.5 Q 530.45 187.15 530.45 180.65 L 530.45 180.65 L 530.45 180.65 Q 530.45 176.55 532.75 173.3 L 532.75 173.3 L 532.75 173.3 Q 535.05 170.05 539 168.25 L 539 168.25 L 539 168.25 Q 542.95 166.45 547.95 166.45 L 547.95 166.45 L 547.95 166.45 Q 552.25 166.45 556.6 168.1 L 556.6 168.1 L 556.6 168.1 Q 560.95 169.75 564.05 173.35 L 564.05 173.35 L 564.05 173.35 Q 564.95 174.05 564.95 175.35 L 564.95 175.35 L 564.95 175.35 Q 564.95 176.55 563.95 177.45 L 563.95 177.45 L 563.95 177.45 Q 563.25 178.05 562.15 178.05 L 562.15 178.05 L 562.15 178.05 Q 561.15 178.05 560.35 177.25 L 560.35 177.25 L 560.35 177.25 Q 557.95 174.55 554.65 173.15 L 554.65 173.15 L 554.65 173.15 Q 551.35 171.75 547.55 171.75 L 547.55 171.75 L 547.55 171.75 Q 542.85 171.75 539.5 173.95 L 539.5 173.95 L 539.5 173.95 Q 536.15 176.15 536.15 180.55 L 536.15 180.55 L 536.15 180.55 Q 536.35 184.55 539.8 186.65 L 539.8 186.65 L 539.8 186.65 Q 543.25 188.75 549.95 190.45 L 549.95 190.45 L 549.95 190.45 Q 555.15 191.75 558.55 193.35 L 558.55 193.35 L 558.55 193.35 Q 561.95 194.95 564.1 197.85 L 564.1 197.85 L 564.1 197.85 Q 566.25 200.75 566.25 205.55 L 566.25 205.55 L 566.25 205.55 Q 566.25 212.05 561.05 215.9 L 561.05 215.9 L 561.05 215.9 Q 555.85 219.75 548.15 219.75 L 548.15 219.75 L 548.15 219.75 Q 535.95 219.75 528.75 210.65 L 528.75 210.65 Z " fill-rule="evenodd" fill="rgb(51,51,51)"/><path d=" M 281.036 83.563 L 247.486 50.012 L 281.036 16.461 L 270.825 6.25 L 227.063 50.012 L 270.825 93.774 L 281.036 83.563 Z  M 318.964 83.563 L 352.514 50.012 L 318.964 16.461 L 329.175 6.25 L 372.937 50.012 L 329.175 93.774 L 318.964 83.563 Z " fill="rgb(51,51,51)"/></g></g></svg>